# xmcd
# 
# Track frame offsets:
#     150
#     9804
#     17953
#     28110
#     34208
#     44579
#     50331
#     55390
#     59602
#     67583
#     76023
#     81925
#     88952
#     98196
#     103798
#     112216
#     117820
#     125277
#     130881
#     137145
#     144389
#     153604
#     158846
#     166327
#     175896
#     184091
#     192517
#     199146
#     204009
#     209147
#     217543
#     224874
#     230174
#     236380
#     241948
#     251649
#     258563
#     272001
#     278570
#     290284
#     298284
#     305545
#     316057
# 
# Disc length: 4421
# 
# Revision: 1
# Processed by: cddbd v1.5.2PL0 Copyright (c) Steve Scherf et al.
# Submitted via: fre:ac v1.0.17
# 
DISCID=8411432b
DTITLE=少儿艺术团 - 北京童谣
DYEAR=2002
DGENRE=Other
TTITLE0=正月正挂红灯
TTITLE1=新年来到
TTITLE2=九九歌
TTITLE3=黄城根儿
TTITLE4=正月歌
TTITLE5=月亮谣
TTITLE6=放风筝
TTITLE7=前门楼子高不高
TTITLE8=哪屋元宵扑鼻香
TTITLE9=正月十五月儿明
TTITLE10=买个蒲包瞧干爹
TTITLE11=豌豆糕点红点儿
TTITLE12=二月二龙抬头
TTITLE13=一个毽儿踢两半儿
TTITLE14=风筝真好玩儿
TTITLE15=拉洋车
TTITLE16=年年有个三月三
TTITLE17=长个针眼让人家看
TTITLE18=卖切糕
TTITLE19=中秋节
TTITLE20=三轮车
TTITLE21=盖洋楼，卖窝头
TTITLE22=北京车子真不少
TTITLE23=下雨啦
TTITLE24=东直门挂着匾
TTITLE25=八月十五月儿圆
TTITLE26=蓝靛厂
TTITLE27=猜拳行令同赏月
TTITLE28=北京粥厂
TTITLE29=九月九
TTITLE30=一阵秋风一阵凉
TTITLE31=平地茶园
TTITLE32=四牌楼底下卖估衣
TTITLE33=飞雪花儿
TTITLE34=平则门拉大弓 
TTITLE35=腊七儿腊八儿
TTITLE36=过了腊八就是年
TTITLE37=褡裢儿搭
TTITLE38=什不闲儿的鼓
TTITLE39=二十三祭灶王
TTITLE40=打什不闲的不害羞
TTITLE41=腊月谣
TTITLE42=打花巴掌儿呔
EXTD=
EXTT0=
EXTT1=
EXTT2=
EXTT3=
EXTT4=
EXTT5=
EXTT6=
EXTT7=
EXTT8=
EXTT9=
EXTT10=
EXTT11=
EXTT12=
EXTT13=
EXTT14=
EXTT15=
EXTT16=
EXTT17=
EXTT18=
EXTT19=
EXTT20=
EXTT21=
EXTT22=
EXTT23=
EXTT24=
EXTT25=
EXTT26=
EXTT27=
EXTT28=
EXTT29=
EXTT30=
EXTT31=
EXTT32=
EXTT33=
EXTT34=
EXTT35=
EXTT36=
EXTT37=
EXTT38=
EXTT39=
EXTT40=
EXTT41=
EXTT42=
PLAYORDER=
